<svg id="Layer_3" enable-background="new 0 0 64 64" height="512" viewBox="0 0 64 64" width="512" xmlns="http://www.w3.org/2000/svg"><path d="m36 62c0-3.866 3.134-7 7-7s7 3.134 7 7h10v-60h-10c0 3.866-3.134 7-7 7s-7-3.134-7-7h-10v60z" fill="#f5b953"/><path d="m47.958 6.941c-1.268 1.272-3.021 2.059-4.958 2.059-3.866 0-7-3.134-7-7h-10v60h10c0-3.866 3.134-7 7-7 .503 0 .993.055 1.465.156 3.495-8.489 5.535-18.685 5.535-29.656 0-6.526-.723-12.777-2.042-18.559z" fill="#f9d18b"/><circle cx="43" cy="34" fill="#c66b60" r="12"/><path d="m53 30c0-1.104-.153-2.17-.412-3.194-2.189-2.913-5.663-4.806-9.588-4.806-6.627 0-12 5.373-12 12 0 2.702.904 5.187 2.411 7.192 1.934 1.141 4.181 1.808 6.589 1.808 7.18 0 13-5.82 13-13z" fill="#e47c6e"/><path d="m14 62c0-3.866 3.134-7 7-7s7 3.134 7 7h10v-60h-10c0 3.866-3.134 7-7 7s-7-3.134-7-7h-10v60z" fill="#f5b953"/><path d="m4 51.57c1.301.278 2.636.43 4 .43 13.255 0 24-13.655 24-30.5 0-6.484-1.597-12.49-4.311-17.432-.882 2.856-3.543 4.932-6.689 4.932-3.866 0-7-3.134-7-7h-10z" fill="#f9d18b"/><circle cx="21" cy="34" fill="#c66b60" r="12"/><path d="m31 30c0-1.104-.153-2.17-.412-3.194-2.189-2.913-5.663-4.806-9.588-4.806-6.627 0-12 5.373-12 12 0 2.702.904 5.187 2.411 7.192 1.934 1.141 4.181 1.808 6.589 1.808 7.18 0 13-5.82 13-13z" fill="#e47c6e"/><path d="m38 63h-10c-.553 0-1-.447-1-1 0-3.309-2.691-6-6-6s-6 2.691-6 6c0 .553-.447 1-1 1h-10c-.553 0-1-.447-1-1v-60c0-.553.447-1 1-1h10c.553 0 1 .447 1 1 0 3.309 2.691 6 6 6s6-2.691 6-6c0-.553.447-1 1-1h10c.553 0 1 .447 1 1v60c0 .553-.447 1-1 1zm-9.062-2h8.062v-58h-8.062c-.493 3.94-3.865 7-7.938 7s-7.444-3.06-7.938-7h-8.062v58h8.062c.493-3.94 3.865-7 7.938-7s7.444 3.06 7.938 7z"/><path d="m4 17h5v2h-5z"/><path d="m33 17h5v2h-5z"/><path d="m19 17h4v2h-4z"/><path d="m12 17h4v2h-4z"/><path d="m26 17h4v2h-4z"/><path d="m7 45h2v10h-2z"/><path d="m11 45h2v10h-2z"/><path d="m29 45h2v10h-2z"/><path d="m33 45h2v10h-2z"/><path d="m21 47c-7.168 0-13-5.832-13-13s5.832-13 13-13 13 5.832 13 13-5.832 13-13 13zm0-24c-6.065 0-11 4.935-11 11s4.935 11 11 11 11-4.935 11-11-4.935-11-11-11z"/><path d="m26.686 44.949-.15-.05c-7.561-2.52-13.124-9.251-14.177-17.148l-.35-2.619 1.982-.264.35 2.619c.952 7.145 5.986 13.234 12.825 15.515l.148.049z"/><path d="m10.832 39.554-1.664-1.107.226-.339c3.788-5.683 10.118-9.329 16.933-9.755l5.611-.351.125 1.996-5.611.351c-6.195.388-11.949 3.702-15.394 8.867z"/><path d="m30.105 41.447-.737-1.475c-1.308-2.614-3.684-4.521-6.52-5.23-2.29-.572-3.848-2.566-3.848-4.865v-.736c0-1.676.832-3.23 2.227-4.16l4.219-2.812 1.109 1.664-4.219 2.812c-.837.557-1.336 1.491-1.336 2.496v.736c0 1.379.935 2.576 2.272 2.911 3.464.865 6.315 3.152 7.885 6.29l.737 1.475z"/><path d="m60 63h-10c-.553 0-1-.447-1-1 0-3.309-2.691-6-6-6-1.626 0-3.147.64-4.286 1.802l-1.428-1.4c1.517-1.549 3.546-2.402 5.714-2.402 4.072 0 7.444 3.06 7.938 7h8.062v-58h-8.062c-.493 3.94-3.865 7-7.938 7-2.168 0-4.197-.853-5.714-2.401l1.428-1.4c1.139 1.161 2.66 1.801 4.286 1.801 3.309 0 6-2.691 6-6 0-.553.447-1 1-1h10c.553 0 1 .447 1 1v60c0 .553-.447 1-1 1z"/><path d="m26 17h5v2h-5z"/><path d="m55 17h5v2h-5z"/><path d="m41 17h4v2h-4z"/><path d="m34 17h4v2h-4z"/><path d="m48 17h4v2h-4z"/><path d="m29 45h2v10h-2z"/><path d="m33 45h2v10h-2z"/><path d="m51 45h2v10h-2z"/><path d="m55 45h2v10h-2z"/><path d="m43 47c-1.889 0-3.711-.396-5.417-1.179l.834-1.818c1.442.662 2.984.997 4.583.997 6.065 0 11-4.935 11-11s-4.935-11-11-11c-1.599 0-3.141.335-4.583.997l-.834-1.818c1.706-.783 3.528-1.179 5.417-1.179 7.168 0 13 5.832 13 13s-5.832 13-13 13z"/><path d="m48.686 44.949-.15-.05c-4.771-1.59-8.816-4.844-11.394-9.161l1.717-1.025c2.332 3.907 5.992 6.851 10.308 8.289l.148.049z"/><path d="m38.557 33.7-1.113-1.66c3.234-2.17 6.997-3.444 10.883-3.688l5.611-.351.125 1.996-5.611.351c-3.533.221-6.955 1.381-9.895 3.352z"/><path d="m52.105 41.447-.737-1.475c-1.308-2.614-3.684-4.521-6.52-5.23-2.29-.572-3.848-2.566-3.848-4.865v-.736c0-1.676.832-3.23 2.227-4.16l4.219-2.812 1.109 1.664-4.219 2.812c-.837.557-1.336 1.491-1.336 2.496v.736c0 1.379.935 2.576 2.272 2.911 3.464.865 6.315 3.152 7.885 6.29l.737 1.475z"/></svg>